name analog
datacolumns 19
datarows 51
range 0.0 0.025
endheader
time	ground_force_vx	ground_force_vy	ground_force_vz	ground_force_px	ground_force_py	ground_force_pz	l_ground_force_vx	l_ground_force_vy	l_ground_force_vz	l_ground_force_px	l_ground_force_py	l_ground_force_pz	ground_torque_x	ground_torque_y	ground_torque_z	l_ground_torque_x	l_ground_torque_y	l_ground_torque_z
0.0	-0.0	-0.0	-0.0	3.7468414306640634	26.859230041503903	-377.0426635742188	-3.104877471923828	-26.887977600097656	-351.0640869140625	-0.0	-0.0	-0.0	-0.0	-0.0	-0.0	96264.109375	-30074.236328125	-1400.57177734375
0.0005	-0.0	-0.0	-0.0	3.607314586639404	26.960044860839844	-377.1811218261719	-2.7924280166625977	-27.01862335205078	-352.1116943359375	-0.0	-0.0	-0.0	-0.0	-0.0	-0.0	96217.90625	-30165.2421875	-1448.210693359375
0.001	-0.0	-0.0	-0.0	3.875062704086304	26.995332717895508	-376.1218566894531	-2.707602024078369	-26.988019943237305	-352.8101501464844	-0.0	-0.0	-0.0	-0.0	-0.0	-0.0	96408.984375	-30074.453125	-1399.1318359375
0.0015	-0.0	-0.0	-0.0	3.796961784362793	27.091968536376957	-376.843017578125	-2.568819046020508	-26.753915786743164	-352.279052734375	-0.0	-0.0	-0.0	-0.0	-0.0	-0.0	96226.4140625	-30152.9609375	-1507.290771484375
0.002	-0.0	-0.0	-0.0	3.846848964691162	27.277498245239254	-376.6450500488281	-2.923739433288574	-26.76517105102539	-352.6723937988281	-0.0	-0.0	-0.0	-0.0	-0.0	-0.0	96304.5390625	-30088.9609375	-1505.047607421875
0.0025	-0.0	-0.0	-0.0	3.8037712574005127	27.231096267700195	-376.4898071289063	-3.0088882446289062	-27.07965469360352	-351.95916748046875	-0.0	-0.0	-0.0	-0.0	-0.0	-0.0	96028.328125	-30152.0234375	-1298.79541015625
0.003	-0.0	-0.0	-0.0	3.9681334495544434	27.1095027923584	-376.16412353515625	-2.7890098094940186	-26.715524673461918	-352.30810546875	-0.0	-0.0	-0.0	-0.0	-0.0	-0.0	96264.3828125	-30051.341796875	-1357.8834228515625
0.0035	-0.0	-0.0	-0.0	3.9117000102996826	27.1351261138916	-377.2096252441406	-2.5300118923187256	-26.963058471679688	-352.1263122558594	-0.0	-0.0	-0.0	-0.0	-0.0	-0.0	96549.8515625	-30269.78125	-1227.2205810546875
0.004	-0.0	-0.0	-0.0	3.753467321395874	26.917381286621094	-375.6265563964844	-2.760330438613892	-26.980566024780277	-351.9043273925781	-0.0	-0.0	-0.0	-0.0	-0.0	-0.0	96415.8828125	-30254.638671875	-1429.247314453125
0.0045000000000000005	-0.0	-0.0	-0.0	3.654382705688477	27.359786987304688	-376.8558349609375	-2.956656217575073	-26.846439361572266	-351.7636413574219	-0.0	-0.0	-0.0	-0.0	-0.0	-0.0	96405.7734375	-30325.91015625	-1402.0054931640625
0.005	-0.0	-0.0	-0.0	3.915714263916016	27.09882164001465	-375.80865478515625	-2.6580209732055664	-27.06566429138184	-352.09991455078125	-0.0	-0.0	-0.0	-0.0	-0.0	-0.0	96290.96875	-30098.0859375	-1326.0538330078125
0.0055	-0.0	-0.0	-0.0	3.6114730834960938	27.12934875488281	-376.2947998046875	-3.0685853958129883	-26.80723762512207	-351.776611328125	-0.0	-0.0	-0.0	-0.0	-0.0	-0.0	96494.1328125	-30271.71484375	-1401.044189453125
0.006	-0.0	-0.0	-0.0	3.8360519409179688	27.23992347717285	-377.1842041015625	-2.4411206245422363	-26.670015335083008	-352.2568054199219	-0.0	-0.0	-0.0	-0.0	-0.0	-0.0	96200.5	-30118.486328125	-1404.825439453125
0.006500000000000001	-0.0	-0.0	-0.0	3.7037277221679688	27.36303329467773	-376.3073425292969	-3.00685453414917	-26.898588180541992	-351.9570617675781	-0.0	-0.0	-0.0	-0.0	-0.0	-0.0	96208.2421875	-30298.359375	-1359.2034912109375
0.007	-0.0	-0.0	-0.0	3.743936061859131	26.74782943725586	-377.3670349121094	-2.61545467376709	-27.03246307373047	-352.51025390625	-0.0	-0.0	-0.0	-0.0	-0.0	-0.0	96348.078125	-30186.31640625	-1417.26220703125
0.0075	-0.0	-0.0	-0.0	3.654803276062012	27.230751037597656	-375.4302978515625	-2.9363045692443848	-26.84391975402832	-352.1136169433594	-0.0	-0.0	-0.0	-0.0	-0.0	-0.0	96412.15625	-30083.998046875	-1432.7806396484375
0.008	-0.0	-0.0	-0.0	3.657630920410156	27.012056350708008	-376.6279602050781	-2.8845489025115967	-27.15459251403809	-352.4742736816406	-0.0	-0.0	-0.0	-0.0	-0.0	-0.0	96356.9453125	-30056.80859375	-1376.400634765625
0.0085	-0.0	-0.0	-0.0	3.8739147186279297	27.044340133666992	-375.9653930664063	-2.7472147941589355	-26.978063583374023	-353.16131591796875	-0.0	-0.0	-0.0	-0.0	-0.0	-0.0	96479.6484375	-30079.07421875	-1388.6553955078125
0.009000000000000001	-0.0	-0.0	-0.0	3.619573831558228	27.23064613342285	-376.167724609375	-3.1076197624206543	-26.94084358215332	-351.7648620605469	-0.0	-0.0	-0.0	-0.0	-0.0	-0.0	96406.453125	-30183.919921875	-1343.9349365234375
0.0095	-0.0	-0.0	-0.0	3.2956552505493164	27.04210090637207	-375.5916442871094	-3.0994973182678223	-26.72132682800293	-352.3363647460937	-0.0	-0.0	-0.0	-0.0	-0.0	-0.0	96400.7578125	-30156.939453125	-1476.01220703125
0.01	-0.0	-0.0	-0.0	3.252449989318848	27.129016876220703	-376.27874755859375	-2.830906391143799	-26.801729202270508	-353.1822814941406	-0.0	-0.0	-0.0	-0.0	-0.0	-0.0	96533.8359375	-30379.69921875	-1403.0308837890625
0.0105	-0.0	-0.0	-0.0	3.3875880241394043	27.271493911743164	-375.5830078125	-2.973079204559326	-26.983537673950195	-352.802734375	-0.0	-0.0	-0.0	-0.0	-0.0	-0.0	96545.515625	-30121.57421875	-1504.03466796875
0.011	-0.0	-0.0	-0.0	3.61420488357544	27.36067771911621	-376.4898071289063	-3.2342193126678467	-26.811811447143555	-350.9169311523437	-0.0	-0.0	-0.0	-0.0	-0.0	-0.0	96432.8359375	-30164.75	-1463.478515625
0.0115	-0.0	-0.0	-0.0	3.3442537784576416	27.01106834411621	-375.5933227539063	-3.0161666870117188	-26.723297119140625	-352.64312744140625	-0.0	-0.0	-0.0	-0.0	-0.0	-0.0	96559.4375	-30153.828125	-1387.908447265625
0.012	-0.0	-0.0	-0.0	3.2528791427612305	26.82825088500977	-376.6533203125	-3.198245048522949	-26.759153366088867	-352.3031311035156	-0.0	-0.0	-0.0	-0.0	-0.0	-0.0	96366.6875	-30220.578125	-1433.723876953125
0.0125	-0.0	-0.0	-0.0	3.7468414306640634	26.73057556152344	-376.8345336914063	-2.9684152603149414	-27.02869033813477	-352.64312744140625	-0.0	-0.0	-0.0	-0.0	-0.0	-0.0	96610.328125	-30122.75390625	-1432.09326171875
0.013000000000000001	-0.0	-0.0	-0.0	3.1638636589050293	27.047969818115234	-374.7239379882813	-3.4597206115722656	-26.75271415710449	-351.4081420898437	-0.0	-0.0	-0.0	-0.0	-0.0	-0.0	96496.0390625	-30235.263671875	-1461.322998046875
0.0135	-0.0	-0.0	-0.0	3.209583044052124	27.00850486755371	-376.3171691894531	-2.8841614723205566	-26.93600082397461	-353.1710510253906	-0.0	-0.0	-0.0	-0.0	-0.0	-0.0	96472.0859375	-30202.990234375	-1416.1610107421875
0.014	-0.0	-0.0	-0.0	3.610149383544922	27.35920143127441	-375.6182556152344	-3.1976773738861084	-27.069578170776367	-353.86920166015625	-0.0	-0.0	-0.0	-0.0	-0.0	-0.0	96684.2109375	-30251.248046875	-1373.6956787109375
0.0145	-0.0	-0.0	-0.0	3.391871929168701	26.96101188659668	-375.7389831542969	-3.0161666870117188	-26.94209671020508	-354.03973388671875	-0.0	-0.0	-0.0	-0.0	-0.0	-0.0	96646.4453125	-30445.37890625	-1416.358642578125
0.015	-0.0	-0.0	-0.0	3.5229177474975586	27.224855422973636	-375.2572326660156	-3.0672507286071777	-26.977489471435547	-353.6830139160156	-0.0	-0.0	-0.0	-0.0	-0.0	-0.0	96608.5	-30271.158203125	-1418.39697265625
0.0155	-0.0	-0.0	-0.0	2.989410638809204	27.004796981811523	-375.9362487792969	-2.7518794536590576	-26.98319435119629	-352.8140869140625	-0.0	-0.0	-0.0	-0.0	-0.0	-0.0	96674.28125	-30455.7265625	-1343.692626953125
0.016	-0.0	-0.0	-0.0	3.3041157722473145	26.917381286621094	-376.3099365234375	-3.1519205570220947	-26.63523292541504	-353.526611328125	-0.0	-0.0	-0.0	-0.0	-0.0	-0.0	96623.234375	-30278.23046875	-1391.0810546875
0.0165	-0.0	-0.0	-0.0	3.6122326850891113	26.875192642211918	-375.2380065917969	-2.7918179035186768	-27.116464614868164	-354.38214111328125	-0.0	-0.0	-0.0	-0.0	-0.0	-0.0	96717.7734375	-30519.2109375	-1373.9923095703125
0.017	-0.0	-0.0	-0.0	3.2493972778320312	27.051830291748047	-376.6694030761719	-2.83547043800354	-26.979829788208008	-353.1571960449219	-0.0	-0.0	-0.0	-0.0	-0.0	-0.0	96774.125	-30315.572265625	-1357.2144775390625
0.0175	-0.0	-0.0	-0.0	3.387089252471924	26.870635986328125	-376.3103637695313	-2.793597459793091	-26.978330612182617	-353.862060546875	-0.0	-0.0	-0.0	-0.0	-0.0	-0.0	96643.703125	-30402.96875	-1403.049072265625
0.018000000000000002	-0.0	-0.0	-0.0	3.435293436050415	26.917381286621094	-374.5446166992188	-2.9304707050323486	-27.291400909423828	-353.6965026855469	-0.0	-0.0	-0.0	-0.0	-0.0	-0.0	96630.6640625	-30554.451171875	-1329.3179931640625
0.0185	-0.0	-0.0	-0.0	3.613675594329834	26.82825088500977	-374.5498962402344	-2.7049639225006104	-27.20307922363281	-353.3526916503906	-0.0	-0.0	-0.0	-0.0	-0.0	-0.0	96787.7421875	-30310.318359375	-1343.2369384765625
0.019	-0.0	-0.0	-0.0	3.435227870941162	26.877174377441406	-374.9079284667969	-2.886543273925781	-27.2479248046875	-353.8678894042969	-0.0	-0.0	-0.0	-0.0	-0.0	-0.0	96789.546875	-30464.26953125	-1374.440673828125
0.0195	-0.0	-0.0	-0.0	3.74450421333313	26.7807674407959	-374.5542602539063	-2.6600236892700195	-27.06995010375977	-354.7431945800781	-0.0	-0.0	-0.0	-0.0	-0.0	-0.0	96650.25	-30337.759765625	-1344.083984375
0.02	-0.0	-0.0	-0.0	3.254547119140625	27.09128189086914	-374.5538024902344	-3.281076431274414	-26.80624008178711	-353.3318176269531	-0.0	-0.0	-0.0	-0.0	-0.0	-0.0	96599.296875	-30369.125	-1329.8052978515625
0.0205	-0.0	-0.0	-0.0	3.341804027557373	26.96040916442871	-374.7239379882813	-2.747718811035156	-27.200773239135746	-354.388916015625	-0.0	-0.0	-0.0	-0.0	-0.0	-0.0	96755.671875	-30368.134765625	-1374.183349609375
0.021	-0.0	-0.0	-0.0	3.741080284118652	26.73528289794922	-374.1922607421875	-2.662416219711304	-26.935937881469727	-353.33282470703125	-0.0	-0.0	-0.0	-0.0	-0.0	-0.0	96704.375	-30366.638671875	-1328.9676513671875
0.021500000000000002	-0.0	-0.0	-0.0	3.301671504974365	27.09123420715332	-375.07708740234375	-2.6633541584014893	-26.762481689453125	-352.64312744140625	-0.0	-0.0	-0.0	-0.0	-0.0	-0.0	96764.234375	-30364.1015625	-1268.904296875
0.022	-0.0	-0.0	-0.0	3.569225311279297	27.052282333374023	-374.2021179199219	-2.7070860862731934	-27.248640060424805	-354.73065185546875	-0.0	-0.0	-0.0	-0.0	-0.0	-0.0	96921.703125	-30514.287109375	-1387.7537841796875
0.0225	-0.0	-0.0	-0.0	3.746081352233887	26.916622161865234	-374.8990173339844	-2.8396387100219727	-27.24857521057129	-353.8634033203125	-0.0	-0.0	-0.0	-0.0	-0.0	-0.0	97053.828125	-30548.80078125	-1329.4385986328125
0.023	-0.0	-0.0	-0.0	3.6133668422698975	26.873157501220703	-375.0852355957031	-2.661323547363281	-27.465606689453125	-354.7444763183594	-0.0	-0.0	-0.0	-0.0	-0.0	-0.0	97131.890625	-30626.29296875	-1328.50927734375
0.0235	-0.0	-0.0	-0.0	3.792958498001098	26.829458236694336	-375.9588623046875	-2.750773429870605	-27.20087242126465	-354.740966796875	-0.0	-0.0	-0.0	-0.0	-0.0	-0.0	97349.21875	-30689.4375	-1285.40771484375
0.024	-0.0	-0.0	-0.0	4.059354305267334	27.318744659423828	-375.9611511230469	-2.6166248321533203	-27.424224853515625	-356.302490234375	-0.0	-0.0	-0.0	-0.0	-0.0	-0.0	97263.9140625	-30477.36328125	-1299.786376953125
0.0245	-0.0	-0.0	-0.0	3.434367418289185	27.140918731689453	-375.2527465820313	-2.57383131980896	-27.42358016967773	-355.4291687011719	-0.0	-0.0	-0.0	-0.0	-0.0	-0.0	97362.0234375	-30563.9765625	-1299.0799560546875
0.025	-0.0	-0.0	-0.0	3.792041540145874	27.18477249145508	-375.9608459472656	-2.571016550064087	-27.20307922363281	-354.7443542480469	-0.0	-0.0	-0.0	-0.0	-0.0	-0.0	97482.171875	-30767.6953125	-1195.2996826171875
